# xmcd CD database file
#
# Track frame offsets:
#	150
#	25933
#	46730
#	47953
#	71954
#	89139
#	113121
#	135941
#	157196
#	182167
#	206273
#	229974
#
# Disc length: 3406 seconds
#
# Revision: 0
# Processed by: cddbd v1.5PL3 Copyright (c) Steve Scherf et al.
# Submitted via: CDex 1.51
#
DISCID=ab0d4c0c
DTITLE=鈴木雅之 - Shh...
DYEAR=2004
DGENRE=Vocal
TTITLE0=Gazer
TTITLE1=Boy, I'm gonna try so hard.
TTITLE2=interlude〜Shh...〜
TTITLE3=これから
TTITLE4=言葉にならないものたち
TTITLE5=adagio
TTITLE6=月の囁き
TTITLE7=Keyword
TTITLE8=ソウルタトゥー
TTITLE9=再会
TTITLE10=Rats and staR〜あの一番星へ〜
TTITLE11=君の未来、僕の想い
EXTD=YEAR: 2004
EXTT0=
EXTT1=
EXTT2=
EXTT3=
EXTT4=
EXTT5=
EXTT6=
EXTT7=
EXTT8=
EXTT9=
EXTT10=
EXTT11=
PLAYORDER=
